HIERARCHY
ROOT Hips
{
  OFFSET 0.000000 0.000000 0.000000
  CHANNELS 6 Xposition Yposition Zposition Xrotation Yrotation Zrotation
  JOINT Spine
  {
    OFFSET 1.602333 -23.943604 -2.409543
    CHANNELS 3 Xrotation Yrotation Zrotation
    JOINT Chest
    {
      OFFSET 1.602333 -23.943604 -2.409543
      CHANNELS 3 Xrotation Yrotation Zrotation
      JOINT Neck
      {
        OFFSET 3.806094 -17.923844 -5.988769
        CHANNELS 3 Xrotation Yrotation Zrotation
        JOINT Head
        {
          OFFSET 6.327906 5.395311 -10.000731
          CHANNELS 3 Xrotation Yrotation Zrotation
          End Site
          {
            OFFSET 0.0 5.0 2.0
          }
        }
      }
      JOINT LeftShoulder
      {
        OFFSET 15.502173 1.195735 6.811843
        CHANNELS 3 Xrotation Yrotation Zrotation
        JOINT LeftArm
        {
          OFFSET 3.049198 17.579728 -11.048325
          CHANNELS 3 Xrotation Yrotation Zrotation
          JOINT LeftForeArm
          {
            OFFSET 2.612628 -12.912878 -19.404069
            CHANNELS 3 Xrotation Yrotation Zrotation
            JOINT LeftHand
            {
              OFFSET -5.000000 0.000000 0.000000
              CHANNELS 3 Xrotation Yrotation Zrotation
              End Site
              {
                OFFSET -3.0 0.0 2.0
              }
            }
          }
        }
      }
      JOINT RightShoulder
      {
        OFFSET -15.502173 -1.195735 -6.811843
        CHANNELS 3 Xrotation Yrotation Zrotation
        JOINT RightArm
        {
          OFFSET 1.860282 20.699400 -12.838847
          CHANNELS 3 Xrotation Yrotation Zrotation
          JOINT RightForeArm
          {
            OFFSET 18.567713 -8.436623 -13.447486
            CHANNELS 3 Xrotation Yrotation Zrotation
            JOINT RightHand
            {
              OFFSET 4.576148 -2.697205 -1.096402
              CHANNELS 3 Xrotation Yrotation Zrotation
              End Site
              {
                OFFSET 3.0 0.0 2.0
              }
            }
          }
        }
      }
    }
  }
  JOINT LeftUpLeg
  {
    OFFSET 12.055773 0.411694 2.557491
    CHANNELS 3 Xrotation Yrotation Zrotation
    JOINT LeftLeg
    {
      OFFSET 12.719119 36.398606 -2.685860
      CHANNELS 3 Xrotation Yrotation Zrotation
      JOINT LeftFoot
      {
        OFFSET 7.820123 26.401424 24.718294
        CHANNELS 3 Xrotation Yrotation Zrotation
        JOINT LeftToeBase
        {
          OFFSET 7.851410 13.775814 -6.190473
          CHANNELS 3 Xrotation Yrotation Zrotation
          End Site
          {
            OFFSET 0.0 -1.0 3.0
          }
        }
      }
    }
  }
  JOINT RightUpLeg
  {
    OFFSET -12.055773 -0.411694 -2.557491
    CHANNELS 3 Xrotation Yrotation Zrotation
    JOINT RightLeg
    {
      OFFSET -15.729471 35.705056 0.246896
      CHANNELS 3 Xrotation Yrotation Zrotation
      JOINT RightFoot
      {
        OFFSET -14.311993 22.750783 26.458322
        CHANNELS 3 Xrotation Yrotation Zrotation
        JOINT RightToeBase
        {
          OFFSET -9.751311 10.017675 -8.024450
          CHANNELS 3 Xrotation Yrotation Zrotation
          End Site
          {
            OFFSET 0.0 -1.0 3.0
          }
        }
      }
    }
  }
}
MOTION
Frames: 12
Frame Time: 0.066667
0.000000 0.000000 0.000000 0.000000 0.000000 0.000000 0.000000 0.000000 0.000000 0.000000 0.000000 0.000000 0.000000 0.000000 0.000000 0.000000 0.000000 0.000000 0.000000 0.000000 0.000000 0.000000 0.000000 0.000000 -24.373494 -24.248075 90.304646 0.000000 0.000000 0.000000 0.000000 0.000000 0.000000 0.000000 0.000000 0.000000 0.000000 0.000000 0.000000 0.000000 0.000000 0.000000 0.000000 0.000000 0.000000 0.000000 0.000000 0.000000 38.673089 -19.602995 -6.938317 0.000000 0.000000 0.000000 0.000000 0.000000 0.000000 0.000000 0.000000 0.000000 50.815604 37.034797 18.079287 0.000000 0.000000 0.000000
0.000000 0.000000 0.000000 0.000675 -0.056753 0.005940 1.465953 0.056411 0.368146 0.343439 -0.770763 -0.638484 -0.541895 -1.282657 -1.033485 0.000000 0.000000 0.000000 1.076767 -2.019525 -2.994196 2.489050 1.657921 -0.720344 -25.685808 -26.283509 88.635863 0.000000 0.000000 0.000000 1.024686 0.200164 0.479773 0.686042 2.814573 -0.772894 1.767856 3.415995 -0.837944 0.000000 0.000000 0.000000 -6.540101 2.157121 -1.015038 -3.713649 0.836823 0.264103 41.769098 -20.757043 -9.113894 0.000000 0.000000 0.000000 1.023242 0.436804 0.799548 -0.515773 0.237547 -0.485658 49.758523 36.585977 14.502697 0.000000 0.000000 0.000000
0.000000 0.000000 0.000000 0.125815 -0.822228 -0.446438 3.262078 -0.062546 2.174704 -0.202386 -2.661227 0.885938 -0.344659 -1.813340 -1.201025 0.000000 0.000000 0.000000 6.611140 -2.039992 -1.702216 -1.015445 0.686508 -0.602730 -23.753083 -23.885337 89.672518 0.000000 0.000000 0.000000 3.538651 1.177146 2.570981 2.972528 2.397902 2.547364 3.035921 4.063400 2.292383 0.000000 0.000000 0.000000 -4.808571 0.135456 -13.248579 -3.580840 5.617864 -5.303510 32.244064 -17.456521 -13.665604 0.000000 0.000000 0.000000 1.238772 0.624687 -3.918403 7.556128 4.265286 0.655315 39.302609 29.984645 -1.994036 0.000000 0.000000 0.000000
0.000000 0.000000 0.000000 0.218827 -0.862237 -0.863467 7.850893 0.485172 0.261829 1.230416 -1.494799 -2.475341 2.926434 -4.983338 -1.007031 0.000000 0.000000 0.000000 12.501056 -3.232555 -2.487772 11.129081 1.325483 0.703500 -35.443852 -38.223866 85.365736 0.000000 0.000000 0.000000 9.527581 0.048759 1.693714 1.956001 3.816889 0.350801 1.133597 6.169052 -8.308981 0.000000 0.000000 0.000000 -4.502055 0.079265 -13.132359 -2.347410 7.044446 -7.224971 35.690498 -18.687513 -16.431640 0.000000 0.000000 0.000000 7.976118 3.955037 -4.736072 8.431860 3.441671 1.725221 43.180446 32.845194 2.871996 0.000000 0.000000 0.000000
0.000000 0.000000 0.000000 0.358661 1.258105 -1.991156 6.645058 1.273002 -5.142468 3.526336 4.269762 -9.371098 5.427769 6.835888 7.353583 0.000000 0.000000 0.000000 7.720684 -5.268472 -7.501925 29.021764 2.713210 2.458130 -31.209516 -72.731909 41.543227 0.000000 0.000000 0.000000 11.874628 -3.942471 -6.088675 3.147961 9.776041 -1.348656 -1.178620 4.329003 -13.725937 0.000000 0.000000 0.000000 -9.384529 1.291129 -12.486219 1.082748 6.244530 -7.001343 37.051284 -19.087313 -15.178279 0.000000 0.000000 0.000000 8.024765 3.870273 -3.575539 5.795920 5.634457 -1.332023 42.926316 33.034651 6.933548 0.000000 0.000000 0.000000
0.000000 0.000000 0.000000 0.577234 1.256284 -3.072563 6.080649 1.398933 -6.361137 3.665118 2.322349 -9.024868 3.306514 4.491115 4.601594 0.000000 0.000000 0.000000 6.008638 -5.917041 -8.931250 27.232539 -0.078685 3.246567 -44.249489 -58.835183 71.584108 0.000000 0.000000 0.000000 11.383580 -1.426264 -0.939556 2.910405 7.031039 -0.198390 -0.336570 2.701419 -7.375860 0.000000 0.000000 0.000000 -17.146347 2.841014 -13.769443 -4.293511 6.448373 -6.126724 41.380835 -20.400207 -17.635863 0.000000 0.000000 0.000000 7.290887 3.490709 -3.258969 4.925777 5.144773 -1.450298 45.298525 34.120841 4.423903 0.000000 0.000000 0.000000
0.000000 0.000000 0.000000 0.795571 1.163108 -4.120321 6.585940 1.375907 -5.824740 3.393788 1.261882 -8.056847 3.216443 -4.686518 -0.652449 0.000000 0.000000 0.000000 6.673215 -5.075255 -7.289728 23.618487 -2.397016 3.800373 -80.651457 -61.481186 109.967824 0.000000 0.000000 0.000000 8.951290 -1.762961 -1.928420 2.892362 6.879792 -0.139250 1.459771 5.713850 -6.367979 0.000000 0.000000 0.000000 -16.167038 2.495701 -14.324334 -5.648405 6.450665 -5.834038 40.619406 -20.152303 -19.015990 0.000000 0.000000 0.000000 6.103951 3.020032 -4.563546 7.211544 4.992827 -0.069604 43.373177 32.759900 0.455632 0.000000 0.000000 0.000000
0.000000 0.000000 0.000000 0.975922 0.777097 -4.865008 5.928922 0.586059 -1.216782 2.320546 -1.620779 -4.853545 2.567964 -7.883309 -2.976676 0.000000 0.000000 0.000000 6.732424 -3.550484 -4.452731 17.494648 -2.753694 3.440770 -78.157364 -52.644412 117.299841 0.000000 0.000000 0.000000 5.754504 -1.666073 -2.110825 4.828735 4.527050 3.717926 2.511257 3.256664 2.166618 0.000000 0.000000 0.000000 -18.562563 2.316663 -17.285640 -8.447845 7.051442 -5.967230 38.274703 -19.490276 -18.999090 0.000000 0.000000 0.000000 3.895626 2.070931 -7.228291 11.845675 4.263887 2.888500 35.874435 27.298858 -4.418309 0.000000 0.000000 0.000000
0.000000 0.000000 0.000000 1.151169 -0.719546 -5.153613 4.730304 0.122598 1.370614 1.802968 -7.366185 -2.544462 3.301463 -6.847275 -1.908188 0.000000 0.000000 0.000000 11.820635 -2.773617 -1.722503 10.539215 -5.822255 4.514814 -50.350336 -29.652614 121.227477 0.000000 0.000000 0.000000 5.355102 -1.786815 -2.371991 5.940886 3.943853 5.495074 4.888317 4.175371 8.192893 0.000000 0.000000 0.000000 -23.059808 2.193890 -20.883207 -13.874922 8.117084 -6.202662 41.026021 -20.252126 -19.718527 0.000000 0.000000 0.000000 3.177384 1.743567 -8.285836 13.719666 2.755197 4.850806 34.975872 26.779711 -3.859182 0.000000 0.000000 0.000000
0.000000 0.000000 0.000000 1.319547 -1.117278 -5.772367 7.372869 -0.011652 3.062817 0.782504 -9.275781 -0.179194 8.424009 -11.841308 -2.175381 0.000000 0.000000 0.000000 8.307194 -1.283086 0.183617 10.142851 -5.394045 4.256023 -48.554611 -30.834533 117.116040 0.000000 0.000000 0.000000 7.435997 -3.083904 -4.591469 5.586593 1.399357 6.589711 3.293500 2.835560 5.833541 0.000000 0.000000 0.000000 -25.665920 1.218498 -25.522686 -13.109769 6.444059 -4.030675 37.404878 -19.218781 -16.808736 0.000000 0.000000 0.000000 2.895725 1.566880 -7.597295 15.016964 2.653619 5.535908 33.840133 26.094215 -3.342503 0.000000 0.000000 0.000000
0.000000 0.000000 0.000000 1.346844 -0.762762 -6.029026 13.550936 0.499550 1.899912 1.135643 -5.773203 -1.457644 7.943857 -11.989794 -2.558640 0.000000 0.000000 0.000000 15.450496 -2.134738 0.774604 16.597154 -11.163659 7.434538 -97.922665 -38.570501 146.120257 0.000000 0.000000 0.000000 8.005235 -1.355361 -1.262906 5.138594 0.204226 6.765717 5.445703 9.263170 0.240664 0.000000 0.000000 0.000000 -21.816091 1.061097 -24.356910 -11.034634 7.102634 -5.446337 33.830945 -18.136569 -16.949422 0.000000 0.000000 0.000000 5.530703 2.782592 -5.212479 11.382614 3.898499 2.909108 38.912870 29.880945 -0.930261 0.000000 0.000000 0.000000
0.000000 0.000000 0.000000 1.284903 0.643178 -6.302665 16.799887 1.386646 -0.938179 0.850632 1.346126 -2.218336 10.291936 -8.604448 1.219910 0.000000 0.000000 0.000000 12.057787 -1.650124 0.652235 19.364214 -11.603045 7.620613 -97.339581 -47.152646 138.007175 0.000000 0.000000 0.000000 10.143014 -0.451714 0.823428 8.053890 7.936141 5.882383 8.569556 15.299666 -0.501866 0.000000 0.000000 0.000000 -10.711682 0.307005 -20.258803 1.662621 6.201018 -7.068328 34.865532 -18.358572 -14.304095 0.000000 0.000000 0.000000 6.537871 3.127796 -3.207506 8.439811 5.069143 0.539079 40.845040 31.334571 1.237043 0.000000 0.000000 0.000000
